2.2Hzhigh3min_grf.mot
version=1
nRows=30
nColumns 19
inDegrees=yes
endheader
time	1_ground_force_vx	1_ground_force_vy	1_ground_force_vz	1_ground_force_px	1_ground_force_py	1_ground_force_pz	1_ground_torque_x	1_ground_torque_y	1_ground_torque_z	2_ground_force_vx	2_ground_force_vy	2_ground_force_vz	2_ground_force_px	2_ground_force_py	2_ground_force_pz	2_ground_torque_x	2_ground_torque_y	2_ground_torque_z
            2.502500	          -36.181018	         1165.132994	          -98.322344	           -0.216562	            0.006123	           -0.381261	            0.034274	           -1.103734	            0.093141	           32.325250	         1543.688604	          102.962361	           -0.233643	            0.005438	           -0.640919	            0.118850	            5.675659	            0.378560
            2.503000	          -34.169004	         1166.763941	         -100.246335	           -0.216488	            0.006124	           -0.381524	           -0.020002	            0.683012	           -0.058683	           29.505547	         1545.715444	           99.779674	           -0.233523	            0.005438	           -0.640815	            0.090409	            4.736277	            0.305738
            2.503500	          -31.325575	         1167.843908	          -99.698479	           -0.216410	            0.006124	           -0.381515	           -0.037672	            1.404446	           -0.119897	           28.186904	         1547.375187	           97.815165	           -0.233416	            0.005437	           -0.640670	            0.072943	            4.004365	            0.253130
            2.504000	          -29.531764	         1169.635914	          -97.173124	           -0.216718	            0.006124	           -0.381434	           -0.016722	            0.662303	           -0.055024	           29.638441	         1547.565682	           97.486700	           -0.233471	            0.005437	           -0.640499	            0.074195	            3.874071	            0.244042
            2.504500	          -29.937428	         1171.606143	          -94.228819	           -0.216688	            0.006124	           -0.381591	            0.024704	           -0.966785	            0.077756	           32.261385	         1547.937791	           99.035533	           -0.233504	            0.005437	           -0.640545	            0.090796	            4.356477	            0.278723
            2.505000	          -32.361217	         1171.775869	          -91.837508	           -0.216737	            0.006124	           -0.381636	            0.054687	           -1.980160	            0.155194	           33.897245	         1549.226565	          100.775767	           -0.233594	            0.005436	           -0.640425	            0.110181	            5.035652	            0.327565
            2.505500	          -35.386420	         1172.495242	          -91.597616	           -0.216766	            0.006124	           -0.381491	            0.048641	           -1.611664	            0.125906	           33.562308	         1551.248556	          101.533985	           -0.233525	            0.005437	           -0.640591	            0.111400	            5.148910	            0.337012
            2.506000	          -36.583083	         1172.323095	          -93.521387	           -0.216481	            0.006124	           -0.381505	            0.005237	           -0.167838	            0.013389	           30.603627	         1553.083200	          100.415535	           -0.233476	            0.005438	           -0.640762	            0.091324	            4.634559	            0.299650
            2.506500	          -35.533002	         1170.348467	          -95.412595	           -0.216284	            0.006125	           -0.381791	           -0.035823	            1.179897	           -0.096191	           27.004193	         1550.502628	           97.451408	           -0.233234	            0.005437	           -0.640387	            0.066079	            3.794050	            0.238462
            2.507000	          -33.151381	         1171.253826	          -96.240060	           -0.216232	            0.006126	           -0.381869	           -0.037400	            1.321342	           -0.108573	           24.520560	         1550.319792	           94.589185	           -0.233123	            0.005437	           -0.640225	            0.056063	            3.544609	            0.216266
            2.507500	          -30.580123	         1170.886848	          -94.643017	           -0.216464	            0.006125	           -0.381745	           -0.008211	            0.314388	           -0.025412	           24.565822	         1550.511573	           92.478065	           -0.233095	            0.005437	           -0.640111	            0.061122	            3.857834	            0.230095
            2.508000	          -29.882521	         1169.968714	          -90.704972	           -0.216537	            0.006125	           -0.381862	            0.026212	           -1.026276	            0.079565	           26.301116	         1549.966764	           92.146853	           -0.233120	            0.005436	           -0.640091	            0.077369	            4.559501	            0.271066
            2.508500	          -30.608088	         1169.594414	          -87.540644	           -0.216540	            0.006126	           -0.381919	            0.039068	           -1.492858	            0.111736	           28.180442	         1548.678961	           93.690092	           -0.233136	            0.005436	           -0.640055	            0.088849	            4.882772	            0.295392
            2.509000	          -32.162258	         1168.685283	          -85.798123	           -0.216382	            0.006126	           -0.381907	            0.018113	           -0.658162	            0.048318	           28.093222	         1547.017157	           94.810492	           -0.233041	            0.005437	           -0.640022	            0.082420	            4.538624	            0.278154
            2.509500	          -33.124730	         1166.161832	          -85.898260	           -0.216283	            0.006126	           -0.382011	           -0.022616	            0.796191	           -0.058647	           25.893577	         1546.454213	           95.513371	           -0.232850	            0.005438	           -0.640103	            0.060822	            3.632506	            0.224354
            2.510000	          -32.487862	         1163.287142	          -88.113304	           -0.216122	            0.006126	           -0.382089	           -0.047502	            1.700912	           -0.128836	           22.241889	         1545.526234	           93.869164	           -0.232678	            0.005438	           -0.640086	            0.042958	            2.985051	            0.181300
            2.510500	          -31.069752	         1161.130249	          -89.501791	           -0.215962	            0.006127	           -0.382092	           -0.036437	            1.361723	           -0.104964	           19.113550	         1542.211292	           90.761417	           -0.232481	            0.005438	           -0.639856	            0.037418	            3.019150	            0.177681
            2.511000	          -29.280362	         1159.686306	          -89.007993	           -0.216053	            0.006126	           -0.382070	            0.000752	           -0.029782	            0.002286	           17.574206	         1540.006154	           87.844647	           -0.232446	            0.005437	           -0.639669	            0.044228	            3.875667	            0.221075
            2.511500	          -28.172920	         1156.970842	          -86.316816	           -0.216161	            0.006127	           -0.382163	            0.027527	           -1.130430	            0.084337	           18.194476	         1536.699724	           86.143150	           -0.232387	            0.005436	           -0.639302	            0.056085	            4.736887	            0.265537
            2.512000	          -27.979929	         1153.530329	          -82.709336	           -0.216050	            0.006128	           -0.382342	            0.026820	           -1.105701	            0.079280	           19.839952	         1535.229171	           87.075758	           -0.232293	            0.005437	           -0.639332	            0.061846	            4.785685	            0.271436
            2.512500	          -28.338519	         1150.632835	          -79.648458	           -0.215792	            0.006128	           -0.382410	           -0.003313	            0.134538	           -0.009313	           20.742596	         1531.913379	           88.283683	           -0.232179	            0.005437	           -0.639373	            0.052873	            3.904861	            0.225036
            2.513000	          -29.205996	         1146.842141	          -78.516120	           -0.215790	            0.006128	           -0.382476	           -0.039915	            1.567361	           -0.107306	           19.348226	         1528.958036	           89.400043	           -0.232091	            0.005438	           -0.639566	            0.035202	            2.781807	            0.162656
            2.513500	          -28.795551	         1143.602097	          -79.631599	           -0.215619	            0.006128	           -0.382432	           -0.054636	            2.169849	           -0.151092	           16.131413	         1524.527748	           89.104079	           -0.231836	            0.005438	           -0.639296	            0.023636	            2.233747	            0.130556
            2.514000	          -28.203699	         1140.545848	          -81.526322	           -0.215452	            0.006128	           -0.382464	           -0.033067	            1.337210	           -0.095584	           13.609795	         1521.948890	           86.749551	           -0.231710	            0.005439	           -0.639250	            0.023180	            2.592133	            0.147749
            2.514500	          -27.746301	         1136.222706	          -82.279706	           -0.215586	            0.006129	           -0.382563	            0.004860	           -0.199011	            0.014411	           11.564823	         1516.981728	           83.260008	           -0.231632	            0.005438	           -0.639077	            0.028734	            3.769148	            0.206871
            2.515000	          -27.329481	         1132.971651	          -80.827254	           -0.215515	            0.006128	           -0.382506	            0.027544	           -1.141859	            0.081461	           11.719546	         1512.755977	           80.710718	           -0.231584	            0.005438	           -0.638971	            0.036752	            4.743991	            0.253108
            2.515500	          -27.229362	         1129.172690	          -77.725512	           -0.215572	            0.006128	           -0.382441	            0.017284	           -0.716748	            0.049337	           13.328585	         1508.161877	           79.614260	           -0.231514	            0.005437	           -0.638724	            0.040855	            4.622830	            0.244034
            2.516000	          -27.037148	         1123.751250	          -74.585086	           -0.215284	            0.006130	           -0.382816	           -0.018585	            0.772447	           -0.051268	           14.750444	         1503.743984	           80.536455	           -0.231425	            0.005437	           -0.638583	            0.033803	            3.446058	            0.184562
            2.516500	          -27.396693	         1119.233619	          -72.035568	           -0.215093	            0.006130	           -0.382760	           -0.052297	            2.136494	           -0.137508	           14.721370	         1498.952018	           81.645666	           -0.231239	            0.005438	           -0.638674	            0.020362	            2.073245	            0.112927
            2.517000	          -27.578736	         1113.824841	          -71.920747	           -0.215063	            0.006130	           -0.382942	           -0.059071	            2.385709	           -0.154048	           13.568874	         1493.790433	           81.956271	           -0.231117	            0.005439	           -0.638786	            0.013974	            1.538382	            0.084403
